<svg xmlns="http://www.w3.org/2000/svg" xmlns:xlink="http://www.w3.org/1999/xlink" width="210.0mm" height="297.0mm" viewBox="0 0 210.0 297.0"><rect x="0" y="0" width="210.0" height="297.0" fill="#ffffff" /><g id="impact"><rect x="10.0" y="10.0" width="190.0" height="106.0" fill="#ffffff" stroke="#000000" stroke-width="2.0" /><text x="105.0" y="63.0" text-anchor="middle" dominant-baseline="middle" font-size="4" fill="#999999">impact</text></g><g id="reaction1"><polygon points="10.0,122.0 94.99100251683852,122.0 109.00899748316148,201.5 10.0,201.5" fill="#ffffff" stroke="none" /><line x1="10.0" y1="122.0" x2="10.0" y2="201.5" stroke="#000000" stroke-width="1.0" /><line x1="94.99100251683852" y1="122.0" x2="109.00899748316148" y2="201.5" stroke="#000000" stroke-width="1.0" /><line x1="10.0" y1="122.0" x2="94.99100251683852" y2="122.0" stroke="#000000" stroke-width="1.0" /><line x1="10.0" y1="201.5" x2="109.00899748316148" y2="201.5" stroke="#000000" stroke-width="1.0" /><text x="56.0" y="161.75" text-anchor="middle" dominant-baseline="middle" font-size="4" fill="#999999">reaction1</text></g><g id="reaction2"><polygon points="115.00899748316148,122.0 200.0,122.0 200.0,201.5 100.99100251683852,201.5" fill="#ffffff" stroke="none" /><line x1="115.00899748316148" y1="122.0" x2="100.99100251683852" y2="201.5" stroke="#000000" stroke-width="1.0" /><line x1="200.0" y1="122.0" x2="200.0" y2="201.5" stroke="#000000" stroke-width="1.0" /><line x1="115.00899748316148" y1="122.0" x2="200.0" y2="122.0" stroke="#000000" stroke-width="1.0" /><line x1="100.99100251683852" y1="201.5" x2="200.0" y2="201.5" stroke="#000000" stroke-width="1.0" /><text x="154.0" y="161.75" text-anchor="middle" dominant-baseline="middle" font-size="4" fill="#999999">reaction2</text></g><g id="aftermath"><rect x="10.0" y="207.5" width="190.0" height="79.5" fill="#ffffff" stroke="#000000" stroke-width="1.0" /><text x="105.0" y="247.25" text-anchor="middle" dominant-baseline="middle" font-size="4" fill="#999999">aftermath</text></g></svg>